<svg id="Camada_1" data-name="Camada 1" xmlns="http://www.w3.org/2000/svg" xmlns:xlink="http://www.w3.org/1999/xlink" viewBox="0 0 241 257"><defs><style>.cls-1{fill:none;}.cls-2{clip-path:url(#clip-path);}.cls-3{fill:#f5cb26;}.cls-4{fill:#fff;}</style><clipPath id="clip-path"><rect class="cls-1" x="34.09" y="46.8" width="500" height="500"/></clipPath></defs><g id="Grupo_4" data-name="Grupo 4"><g class="cls-2"><g id="Grupo_3" data-name="Grupo 3"><g id="Grupo_2" data-name="Grupo 2"><g class="cls-2"><g id="Grupo_1" data-name="Grupo 1"><path id="Caminho_2" data-name="Caminho 2" class="cls-3" d="M179.79,126.15c-1.5-2.11-4.15-3.06-8-2.84h-.28a11.8,11.8,0,0,0-5.06,1.86,31.87,31.87,0,0,0-5.47,4.28,76.2,76.2,0,0,0-5.29,5.64q-2.57,3-4.52,5.78.45-2.77.94-5.22a32.41,32.41,0,0,0,.59-4.5,2.05,2.05,0,0,0,.08-.82,27.6,27.6,0,0,0-.2-3.27,6.64,6.64,0,0,0-1.14-3,7.41,7.41,0,0,0-2.72-2.31,14.92,14.92,0,0,0-4.84-1.38h-.28a12.27,12.27,0,0,0-5.73,1.09,25.41,25.41,0,0,0-5.81,3.49,43.56,43.56,0,0,0-5.28,4.88,45,45,0,0,0-4,5,24.88,24.88,0,0,0-1.53,2.26c-.35.62-.7,1.17-1,1.66-.4.76-.89,1.69-1.49,2.79a21.76,21.76,0,0,0-1.18,2.71,35.48,35.48,0,0,0-1.32-4,26.24,26.24,0,0,0-5.72-8.78,23.78,23.78,0,0,0-8.88-5.57,28.38,28.38,0,0,0-12-1.35,25,25,0,0,0-8.9,2.52,25.88,25.88,0,0,0-7.81,5.84,27.44,27.44,0,0,0-5.32,8.66,24.08,24.08,0,0,0-1.44,10.8c.07.82.19,1.81.38,3a18,18,0,0,0,.81,3.23,14.24,14.24,0,0,1-.45-1.4,12.06,12.06,0,0,0-1.81-3.69,1.48,1.48,0,0,0-1.36-.64,1.7,1.7,0,0,0-1.3.79A37.53,37.53,0,0,0,57.77,165a43.16,43.16,0,0,0-.89,13.36,45.21,45.21,0,0,0,2,10.18,24.4,24.4,0,0,0,4.67,8.52,20,20,0,0,0,7.93,5.59A25.51,25.51,0,0,0,83.1,204a29.06,29.06,0,0,0,11.43-3.4,41.19,41.19,0,0,0,9.75-7.24,47.65,47.65,0,0,0,7.37-9.58,37.6,37.6,0,0,0,4.27-10.56,38.42,38.42,0,0,0,4.13-3.07,33.13,33.13,0,0,0,2.41-2.33c.59-.64,8.3-7.53,8.54-7.92a6.53,6.53,0,0,0,.48-.86,1.2,1.2,0,0,0-.12-1.51s0-.06,0-.09l-.23-.21-.06-.07-.11-.09c-.2-.18-.42-.41-.72-.7a7.5,7.5,0,0,1-1.51-2.55,12.68,12.68,0,0,1-.71-4.53,21.86,21.86,0,0,1,1.53-7.18c.83-2.08,1.74-4.14,2.71-6.18a45,45,0,0,1,3-5.39,21.37,21.37,0,0,1,2.91-3.66,3.66,3.66,0,0,1,2.5-1.3c.28.07.4.72.37,2a24.44,24.44,0,0,1-.24,3,1.48,1.48,0,0,0-.08.69,69.06,69.06,0,0,1-2.36,11.29q-1.82,6.31-3.81,12.91t-3.8,13a80.85,80.85,0,0,0-2.47,11.64c-.1,1-.23,2.19-.39,3.52a12.61,12.61,0,0,0,0,3.63,7.64,7.64,0,0,0,2.19,4.89,8.57,8.57,0,0,0,4.21,2.12,17.12,17.12,0,0,0,5.15.19,29.66,29.66,0,0,0,4.86-.88,17.94,17.94,0,0,0,3.4-1.23c.83-.44,1.1-.73.81-.89l-1.36-.78a6.87,6.87,0,0,1-1.93-1.83,11.53,11.53,0,0,1-1.73-3.56,17.19,17.19,0,0,1-.62-5.84,18.19,18.19,0,0,1,.23-2.21c.12-.74.23-1.57.34-2.5s.34-2.24.71-4,.79-3.65,1.3-5.79,1.08-4.45,1.69-6.92,1.24-5,1.86-7.48q1.69-2.61,4-5.6t4.67-5.73c1.58-1.82,3-3.4,4.33-4.74a17.59,17.59,0,0,1,3-2.64,3,3,0,0,1,1.82-.36,2.08,2.08,0,0,1,1.44.91,4.84,4.84,0,0,1,.67,2.34,10.68,10.68,0,0,1-.63,4c-.65,2.16-1.21,3.91-1.69,5.28s-1,3-1.59,4.85q-1.55,4.51-3.09,9.09t-2.7,8.86a70.7,70.7,0,0,0-1.73,8.15,21.62,21.62,0,0,0-.05,6.86l0,.4a7.64,7.64,0,0,0,2.19,4.89,9,9,0,0,0,4.22,2.19,15.55,15.55,0,0,0,5.09.27,32.52,32.52,0,0,0,4.79-.87,20.12,20.12,0,0,0,3.46-1.25c.87-.44,1.17-.73.88-.89a18.19,18.19,0,0,1-1.6-1.17,9.14,9.14,0,0,1-2.21-2.77,15.28,15.28,0,0,1-1.57-4.93,22.16,22.16,0,0,1,.33-7.7q.45-2.77,1.34-7t2-9.06q1.11-4.83,2.29-9.71t2.06-9.08a1.14,1.14,0,0,0,.09-.55,1.35,1.35,0,0,1,.09-.56,9.12,9.12,0,0,0-1.12-7.78m-78,58.46a31.27,31.27,0,0,1-4.6,5.72,24.43,24.43,0,0,1-14.1,6.84,14.63,14.63,0,0,1-6.36-.7,11.84,11.84,0,0,1-4.48-2.92,13.09,13.09,0,0,1-2.78-4.64,22.58,22.58,0,0,1-1.23-5.86,29.87,29.87,0,0,1,.38-7.84,35.8,35.8,0,0,1,2-7,24.81,24.81,0,0,0,6.19,6.2,28.24,28.24,0,0,0,7.08,3.53,29.34,29.34,0,0,0,7.31,1.45,43.85,43.85,0,0,0,6.78,0c1.36-.11,2.58-.25,3.66-.44s2.21-.4,3.37-.68a36.94,36.94,0,0,1-3.18,6.35m11.07-15.36a29.93,29.93,0,0,1-3.31,1.37c-1.33.47-2.76.91-4.28,1.31a24.76,24.76,0,0,1-4.18.75,31.18,31.18,0,0,1-8.46-.47,24.82,24.82,0,0,1-7.69-2.79,19.22,19.22,0,0,1-5.75-4.94,12.87,12.87,0,0,1-2.64-7,3.66,3.66,0,0,1,1.61-3,11.77,11.77,0,0,1,3.68-1.88,22.62,22.62,0,0,1,4.31-.9,15.07,15.07,0,0,1,3.49-.08,22.85,22.85,0,0,0-4.86.88A17.42,17.42,0,0,0,81.12,154a18.2,18.2,0,0,0-2.33,1.56,11,11,0,0,0-1,.83c-.16.38,0,.46.56.23a4,4,0,0,1,1.59-.68c.89-.25,1.92-.52,3.08-.8s2.34-.53,3.5-.76a25,25,0,0,1,2.84-.44,13.93,13.93,0,0,1,2.33-.06,5.63,5.63,0,0,0,1.23,0q.27,0,1-1.65a11,11,0,0,0,.43-4.9,14.81,14.81,0,0,0-.61-3.17,8.81,8.81,0,0,0-1.46-2.82,6.52,6.52,0,0,0-2.56-2,8,8,0,0,0-3.88-.51,21.69,21.69,0,0,0-4.31.9,16.32,16.32,0,0,1,4.56-2.84,15.42,15.42,0,0,1,4.17-1,17.52,17.52,0,0,1,8.3,1,14.5,14.5,0,0,1,5.61,4.06,16.92,16.92,0,0,1,3.24,6,32.15,32.15,0,0,1,1.31,6.81,42.08,42.08,0,0,1,0,6.92,66.47,66.47,0,0,1-1.08,7.69,4.29,4.29,0,0,0,.22.94c.12.36.59.5,1.41.43a14.36,14.36,0,0,0,2.16-.38,10.8,10.8,0,0,0,2.78-1.12c0,.18-.42.49-1.29.93m6.92-4.13a19.94,19.94,0,0,1-2.19,1.69,69,69,0,0,0,1.15-8.59c0-.48,0-.94.07-1.39a7.2,7.2,0,0,0,1,.55,16.17,16.17,0,0,0,5.25,1.28,20.77,20.77,0,0,0,2.09,0c-2.66,2.3-6.9,6-7.39,6.42"/><path id="Caminho_3" data-name="Caminho 3" class="cls-4" d="M201.61,109.35c-3.86-.3-7.74-.7-11.61-.7-6.27,0-12.53.24-18.8.45-3,.1-6.1.32-9.14.55-4.72.35-9.44.76-14.16,1.16-2.65.23-5.32.45-8,.75-4.19.48-8.37,1-12.56,1.53-3,.37-6,.74-9.06,1.16q-5.84.81-11.67,1.72c-3.47.54-6.94,1.13-10.41,1.72q-4.78.82-9.54,1.71-5.88,1.11-11.74,2.3c-3.88.8-7.76,1.59-11.61,2.47-4.1.93-8.18,2-12.27,3-.68.16-1.33.43-2,.66a.57.57,0,0,0,.53.2c3.32-.68,6.63-1.38,9.94-2,2.52-.5,5.05-.93,7.57-1.41,3.55-.67,7.09-1.38,10.64-2,2.78-.51,5.57-.93,8.35-1.42,3.74-.65,7.48-1.35,11.23-2s7.26-1.17,10.9-1.71q6.17-.9,12.35-1.73c3-.4,6.1-.77,9.16-1.14,3.37-.39,6.74-.81,10.13-1.14q6.69-.63,13.39-1.14c3.42-.25,6.85-.49,10.29-.56,11.84-.26,23.68-.45,35.51-.67,1.27,0,2.54-.07,3.81-.17a3.93,3.93,0,0,0,1.07-.4l0-.46a12.2,12.2,0,0,0-2.36-.67"/><path id="Caminho_4" data-name="Caminho 4" class="cls-4" d="M60.54,88.18q4.86-.89,9.73-1.71,5.43-.9,10.88-1.73c3-.46,6.1-.83,9.14-1.29,1.95-.29,3.88-.76,5.84-1,2.54-.32,5.09-.47,7.63-.75s5.09-.66,7.64-1c3.22-.39,6.43-.76,9.65-1.12,3.66-.41,7.33-.8,11-1.17,3.86-.4,7.72-.79,11.58-1.12,5-.42,9.94-.83,14.92-1.17,4.16-.28,8.32-.46,12.48-.69,1.05,0,2.11,0,3.15-.16a13,13,0,0,0,2.13-.45c.54-.15.55-.49.11-.8a1.32,1.32,0,0,0-.68-.28c-1.42-.1-2.85-.22-4.28-.21A201.79,201.79,0,0,0,150,74.67c-3.85.42-7.71.75-11.56,1.15-3.47.37-6.94.76-10.41,1.15-3.25.37-6.49.75-9.74,1.14-3.08.38-6.17.76-9.25,1.16s-5.93.77-8.9,1.18c-2.55.35-5.11.72-7.66,1.11q-5.55.84-11.08,1.73c-3.35.54-6.68,1.11-10,1.71q-4.58.82-9.14,1.72c-4,.79-7.94,1.59-11.9,2.45-3.27.71-6.52,1.51-9.78,2.29-2.17.52-4.32,1.08-6.48,1.63l.07.32c1-.22,1.93-.45,2.9-.65,3.78-.77,7.56-1.55,11.35-2.29q6.06-1.18,12.12-2.29"/><path id="Caminho_5" data-name="Caminho 5" class="cls-4" d="M147.28,82.31c-4.28.3-8.55.64-12.83,1-2.85.23-5.71.46-8.55.75s-5.92.68-8.88,1c-2,.24-4.09.46-6.13.74a1,1,0,0,0-.74.61c-.42,2.48-.77,5-1.13,7.45-.45,3.08-.9,6.16-1.33,9.24-.27,1.92-.56,3.84-.74,5.77-.16,1.77.67,2.64,2.43,2.57a11.52,11.52,0,0,0,2.62-.39,1.49,1.49,0,0,0,.91-.86,13.2,13.2,0,0,0,.28-2.07c.32-2.2.67-4.4,1-6.6.46-3.25.92-6.49,1.32-9.73.25-2,1-4-.37-6l3.17-.25c.28,2,.52,3.89.79,5.77.24,1.64.52,3.27.79,4.9.58,3.66,1.14,7.34,1.77,11a2.34,2.34,0,0,0,2.55,2.13h0a35.61,35.61,0,0,0,4.23-.61,2,2,0,0,0,1.18-1c.69-1.2,1.29-2.46,1.88-3.71a148.11,148.11,0,0,0,7.05-16.88,3.12,3.12,0,0,0-.26-3.17c1.14-.11,2.2-.23,3.27-.28.15,0,.48.43.45.63q-.47,3.6-1,7.17c-.62,4.06-1.28,8.1-1.88,12.16-.4,2.72.33,3.56,3.06,3.38,2.89-.19,5.77-.49,8.64-.83a2.47,2.47,0,0,0,2.25-1.77,20,20,0,0,0,.41-2.44c.09-.54-.14-.79-.68-.74-.79.07-1.58.17-2.37.24l-5,.4c.24-1.57.47-3,.67-4.39.09-.61.42-.76,1-.77.92,0,1.84-.11,2.76-.21a2.55,2.55,0,0,0,2.14-2.1c.08-.56.16-1.13.25-1.69.15-1-.06-1.19-1.07-1.07-1.38.17-2.77.25-4.25.38.2-1.52.34-2.84.59-4.14a1,1,0,0,1,.76-.59c1.42-.17,2.85-.25,4.28-.38a2.52,2.52,0,0,0,2.65-2.34c.11-.52.22-1,.33-1.61h3.65c-.2,1.44-.39,2.84-.6,4.24-.4,2.67-.83,5.34-1.23,8-.37,2.39-.74,4.77-1.07,7.17a3.77,3.77,0,0,0,.09,1.6c.45,1.4,1.66,1.39,2.82,1.34,3-.15,2.65.39,3.14-3,.26-1.75.56-3.5.84-5.25h1.88c.44,1.61.76,3.17,1.29,4.66.76,2.13,1.74,3.06,3.29,3.07a5.93,5.93,0,0,0,4.06-1.58c.81-.74,1-1.27.24-2.3-1.15-1.61-2.21-3.29-3.38-5a8.67,8.67,0,0,0,4.76-6c.53-2.63.69-5.29-1.76-7.51,1.13,0,2,.06,2.83,0s1,.26,1.29.91c1.38,3.61,2.73,7.23,4.26,10.77a5,5,0,0,1,.29,3c-.24,1.51-.51,3-.65,4.53s.45,2.28,2,2.47a19.48,19.48,0,0,0,3,.05c.64,0,1-.4,1.08-1.1.31-2.14.68-4.27,1-6.39a1.87,1.87,0,0,1,.35-.74c1-1.1,2-2.15,2.87-3.28A42.35,42.35,0,0,0,197.59,84a1.5,1.5,0,0,0-.39-2.09l-.11-.07a4.21,4.21,0,0,0-1.59-.57c-2.3-.24-4.61-.5-6.93-.57-2.83-.09-5.67-.1-8.5,0q-11,.41-22,.94c-3.59.17-7.18.43-10.76.68M127,103.07l-.33,0c-.15-1.66-.34-3.31-.46-5-.25-3.27-.46-6.54-.71-9.8A4.24,4.24,0,0,0,124,84.85l9.21-.65L127,103.07m64.63-20.56a60.41,60.41,0,0,1-5.13,9.75L184,82.51ZM164.45,88.8c.05-.32.12-.63.14-.94.13-1.48.13-1.48,1.58-1.6,3.2-.26,4.23,1.12,3.08,4.12a3.36,3.36,0,0,1-3.14,2.32c-.69,0-1.38,0-2.23,0,.21-1.41.39-2.66.56-3.9"/><path id="Caminho_6" data-name="Caminho 6" class="cls-4" d="M54.28,96.54c-.31,3.13-.6,6.27-1,9.4-.5,4.42-1.06,8.83-1.55,13.24-.27,2.43.93,3.63,3.36,3.27a44.18,44.18,0,0,0,5.09-1,15.35,15.35,0,0,0,10.9-10.75A29.19,29.19,0,0,0,72.29,98.3c-.41-3.87-2.29-6.23-6.71-6.16a18.07,18.07,0,0,0-3.66.47c-3.88.86-7.75,1.79-11.62,2.72-2.64.63-5.27,1.3-7.9,2a12.38,12.38,0,0,0-1.53.59l.08.2,13.34-2.5c0,.37,0,.65,0,.93m4.39,14.2c.35-3.44.76-6.88,1-10.33.08-.91.34-1.41,1.27-1.53.75-.09,1.48-.36,2.22-.4a2.36,2.36,0,0,1,2.71,2,1.66,1.66,0,0,1,0,.24,20.21,20.21,0,0,1-1.53,11,7.1,7.1,0,0,1-6.19,3.88c.15-1.64.28-3.21.45-4.78"/><path id="Caminho_7" data-name="Caminho 7" class="cls-4" d="M83.37,94.85a23.07,23.07,0,0,1,3.4-.61c1.28-.14,2.58-.26,3.3-1.48a6,6,0,0,0,.49-4.19c-1,.08-1.89.09-2.79.24-1.28.22-2.53.61-3.82.8-1.82.29-3.64.46-5.47.67a1,1,0,0,0-1,1,.75.75,0,0,0,0,.15,25.27,25.27,0,0,1-.18,3.13c-.27,1.88-.66,3.75-1,5.63s-.5,3.59-.73,5.38c-.4,3.12-.85,6.24-1.18,9.36-.19,1.76.7,2.62,2.48,2.48a27,27,0,0,0,3-.55c2.08-.4,4.17-.79,6.24-1.23a2.64,2.64,0,0,0,2.32-2.29c.13-.82.32-1.62.45-2.44s-.15-1.06-1-.9l-7.13,1.4.76-5.68c.93-.17,1.88-.39,2.85-.52a3.06,3.06,0,0,0,2.89-2.76,14.7,14.7,0,0,1,.32-2c.16-1,0-1.13-1-1l-4.23.72c.09-1.57.12-3,.27-4.35a1.35,1.35,0,0,1,.7-1"/><path id="Caminho_8" data-name="Caminho 8" class="cls-4" d="M100.38,91a9.54,9.54,0,0,0,0-2,1.44,1.44,0,0,0-1.26-1.46,22.71,22.71,0,0,0-3.86.27c-.23,0-.55.49-.6.79-.31,2.07-.56,4.15-.84,6.22-.74,5.45-1.5,10.89-2.24,16.33-.28,2,.56,3,2.61,2.78,2.73-.33,5.45-.82,8.14-1.4a2.62,2.62,0,0,0,1.63-1.39,25.5,25.5,0,0,0,.85-4l-6.83,1c.28-2.24.5-4.29.79-6.34.51-3.61,1.07-7.22,1.58-10.84"/><path id="Caminho_9" data-name="Caminho 9" class="cls-4" d="M193,115.64a1.26,1.26,0,0,0-.62-.2,48,48,0,0,0-5.48-.56c-6.24,0-12.48,0-18.71.28-5.62.26-11.22.85-16.82,1.37-4.24.4-8.47.89-12.69,1.4-2.42.29-4.83.69-7.24,1.07-1.94.31-3.86.67-5.78,1l0,.34a8.18,8.18,0,0,0,1,0c3.56-.39,7.12-.86,10.7-1.19,4.81-.44,9.63-.84,14.46-1.13,6.51-.36,13-.68,19.55-.83,6.18-.14,12.36,0,18.53-.09a19,19,0,0,0,3-.37c.24,0,.44-.3.66-.46a4.63,4.63,0,0,0-.6-.65"/><path id="Caminho_10" data-name="Caminho 10" class="cls-3" d="M184.15,198.41l-1.3-4.73c-1.28-4.67-2.57-9.34-3.84-14a2.85,2.85,0,0,1,1.69-3.55,2.8,2.8,0,0,1,3.37,1.17,4.86,4.86,0,0,1,.46,1.22q1.13,4,2.23,8.1c0,.05.06.1.05.07a6.29,6.29,0,0,1,1.07-1.84,3.17,3.17,0,0,1,2-.82c1.87,0,2.6,1.38,3,3.1.39-1.71,1.28-2.87,3.12-2.78s2.47,1.38,2.93,3.17a3.21,3.21,0,0,1,1.83-2.65,2.7,2.7,0,0,1,3.59,1.33c0,.06.05.12.08.19a40.87,40.87,0,0,1,2.49,10.41,13.14,13.14,0,0,1-11.64,13.31,15.9,15.9,0,0,1-12-3.44q-3.89-3.06-7.89-6a8.59,8.59,0,0,0-2.07-.82,2.82,2.82,0,0,1-2-2.51,2.25,2.25,0,0,1,1.2-2.46,3.73,3.73,0,0,1,2.15-.35,23.72,23.72,0,0,1,4.29,1.34c1.69.72,3.32,1.62,5.17,2.54"/><path id="Caminho_11" data-name="Caminho 11" class="cls-3" d="M66.78,51.8a35.64,35.64,0,0,1,24.33-4.46,2.2,2.2,0,0,1,2.08,1.73,1.9,1.9,0,0,1-.91,2.22,3,3,0,0,1-1.8.34A30.76,30.76,0,0,0,67.11,56.8,30.28,30.28,0,0,0,55.59,72,4.42,4.42,0,0,1,55,73.3,2.16,2.16,0,0,1,51.32,71,35.37,35.37,0,0,1,57.8,59.46a37.25,37.25,0,0,1,9-7.67"/><path id="Caminho_12" data-name="Caminho 12" class="cls-3" d="M70.94,59.69A26.7,26.7,0,0,1,88.75,56c1.64.23,2.45,1.13,2.28,2.48s-1.32,2-2.94,1.81A22.22,22.22,0,0,0,64.17,74.4a4.14,4.14,0,0,1-.55,1.09,2.18,2.18,0,0,1-2.74.52A2.12,2.12,0,0,1,60,73.3a25.75,25.75,0,0,1,8.52-11.83c.94-.73,1.94-1.39,2.47-1.78"/><path id="Caminho_13" data-name="Caminho 13" class="cls-3" d="M75.73,67.15a18.13,18.13,0,0,1,10.71-2.51c1.63.14,2.48,1,2.38,2.38a2.2,2.2,0,0,1-2.38,2l-.24,0a13.34,13.34,0,0,0-8.53,2.14,13.82,13.82,0,0,0-4.89,5.66,3.57,3.57,0,0,1-1.34,1.54,1.93,1.93,0,0,1-2.36-.45,2,2,0,0,1-.44-2.38,17.06,17.06,0,0,1,5.53-7.2c.59-.45,1.21-.87,1.57-1.13"/></g></g></g></g></g></g></svg>